<svg width="73" height="22" viewBox="0 0 73 22" fill="none" xmlns="http://www.w3.org/2000/svg">
<path d="M0.159424 21.2579L0.159424 0.769135L7.74027 0.769135C9.37937 0.769135 10.7355 1.04232 11.8088 1.58868C12.882 2.13505 13.682 2.88631 14.2089 3.84245C14.7357 4.79859 14.9992 5.87182 14.9992 7.06212C14.9992 8.19388 14.7455 9.23783 14.2381 10.194C13.7308 11.1306 12.9405 11.8916 11.8673 12.477C10.7941 13.0429 9.4184 13.3258 7.74027 13.3258H3.90594V21.2579H0.159424ZM3.90594 10.2818H7.50611C8.81349 10.2818 9.75012 9.99884 10.316 9.43296C10.9014 8.84757 11.1941 8.05728 11.1941 7.06212C11.1941 6.04743 10.9014 5.25715 10.316 4.69127C9.75012 4.10588 8.81349 3.81318 7.50611 3.81318H3.90594L3.90594 10.2818Z" fill="#C8D2EA"/>
<path d="M22.698 21.6091C21.2345 21.6091 19.9369 21.2969 18.8051 20.6725C17.6734 20.0481 16.7855 19.17 16.1416 18.0382C15.4977 16.9065 15.1757 15.5991 15.1757 14.1161C15.1757 12.6136 15.4879 11.2769 16.1123 10.1062C16.7562 8.93537 17.6343 8.02801 18.7466 7.38408C19.8783 6.72064 21.2052 6.38891 22.7273 6.38891C24.1517 6.38891 25.4103 6.70112 26.503 7.32554C27.5958 7.94996 28.4446 8.80854 29.0495 9.90127C29.6739 10.9745 29.9861 12.1746 29.9861 13.5014C29.9861 13.7161 29.9764 13.9405 29.9569 14.1746C29.9569 14.4088 29.9471 14.6527 29.9276 14.9064H18.8929C18.971 16.0382 19.3612 16.926 20.0637 17.5699C20.7857 18.2139 21.654 18.5358 22.6687 18.5358C23.4297 18.5358 24.0639 18.37 24.5713 18.0382C25.0981 17.687 25.4884 17.2382 25.742 16.6918H29.5471C29.2739 17.609 28.8154 18.448 28.1714 19.209C27.547 19.9505 26.7665 20.5359 25.8298 20.9652C24.9127 21.3945 23.8688 21.6091 22.698 21.6091ZM22.7273 9.43296C21.8101 9.43296 21.0004 9.69639 20.2979 10.2232C19.5954 10.7306 19.1466 11.5111 18.9515 12.5648H26.1811C26.1225 11.6087 25.7713 10.8477 25.1274 10.2818C24.4834 9.7159 23.6834 9.43296 22.7273 9.43296Z" fill="#C8D2EA"/>
<path d="M31.6737 21.2579V6.74015H34.9812L35.2739 9.1988C35.7227 8.34022 36.3666 7.65726 37.2057 7.14992C38.0643 6.64258 39.0692 6.38891 40.2205 6.38891C42.0157 6.38891 43.4109 6.95479 44.406 8.08655C45.4012 9.21831 45.8988 10.8769 45.8988 13.0624V21.2579H42.1523V13.4136C42.1523 12.1648 41.8986 11.2087 41.3913 10.5452C40.8839 9.88176 40.0936 9.55004 39.0204 9.55004C37.9667 9.55004 37.0984 9.92079 36.4154 10.6623C35.752 11.4038 35.4202 12.438 35.4202 13.7649V21.2579H31.6737Z" fill="#C8D2EA"/>
<path d="M54.4865 21.2579C52.9644 21.2579 51.7449 20.8872 50.8278 20.1457C49.9106 19.4042 49.4521 18.087 49.4521 16.1943V9.872H46.9642V6.74015L49.4521 6.74015L49.8911 2.84728H53.1986V6.74015H57.1207V9.872H53.1986V16.2235C53.1986 16.926 53.3449 17.4138 53.6376 17.687C53.9499 17.9407 54.4767 18.0675 55.2182 18.0675H57.0329V21.2579H54.4865Z" fill="#C8D2EA"/>
<path d="M63.8791 21.6091C62.6302 21.6091 61.6058 21.414 60.8057 21.0238C60.0057 20.614 59.4106 20.0774 59.0203 19.4139C58.63 18.7505 58.4349 18.0187 58.4349 17.2187C58.4349 15.8723 58.9618 14.7796 60.0155 13.9405C61.0692 13.1014 62.6497 12.6819 64.7571 12.6819H68.4451V12.3307C68.4451 11.3355 68.1622 10.6037 67.5963 10.1354C67.0304 9.66712 66.328 9.43296 65.4889 9.43296C64.7279 9.43296 64.0644 9.61833 63.4986 9.98908C62.9327 10.3403 62.5814 10.8672 62.4448 11.5696H58.7861C58.8837 10.5159 59.2349 9.59882 59.8398 8.8183C60.4643 8.03777 61.2643 7.44262 62.24 7.03285C63.2156 6.60356 64.3084 6.38891 65.5182 6.38891C67.5866 6.38891 69.2159 6.90601 70.4062 7.94021C71.5965 8.9744 72.1917 10.4379 72.1917 12.3307V21.2579H69.0013L68.65 18.9163C68.2207 19.6969 67.6158 20.3408 66.8353 20.8481C66.0743 21.3555 65.0889 21.6091 63.8791 21.6091ZM64.7279 18.6822C65.8011 18.6822 66.6304 18.3309 67.2158 17.6285C67.8207 16.926 68.2012 16.0577 68.3573 15.0235H65.1669C64.1718 15.0235 63.4595 15.2088 63.0302 15.5796C62.601 15.9308 62.3863 16.3699 62.3863 16.8967C62.3863 17.4626 62.601 17.9017 63.0302 18.2139C63.4595 18.5261 64.0254 18.6822 64.7279 18.6822Z" fill="#C8D2EA"/>
</svg>
